HIERARCHY
ROOT bone01
{
	OFFSET -2.915406 8.548021 0.000000
	CHANNELS 6 Xposition Yposition Zposition Xrotation Yrotation Zrotation
	JOINT bone02
	{
		OFFSET 0.000039 -108.101562 0.000002
		CHANNELS 3 Xrotation Yrotation Zrotation
		JOINT bone03
		{
			OFFSET -2.140633 -132.718750 -0.000003
			CHANNELS 3 Xrotation Yrotation Zrotation
			JOINT bone04
			{
				OFFSET -2.140536 -161.617142 -0.000007
				CHANNELS 3 Xrotation Yrotation Zrotation
				JOINT bone05
				{
					OFFSET 0.000051 -176.601593 0.000002
					CHANNELS 3 Xrotation Yrotation Zrotation
					End Site
					{
						OFFSET 0.000000 0.000000 -0.977059
					}
				}
			}
		}
	}
}
MOTION
Frames: 46
Frame Time: 0.041667
-2.915406 8.548020 -0.000000 0.000000 -0.003501 0.003491 -4.970115 0.514599 -1.976819 0.000001 0.000014 -0.000847 0.017472 -0.000060 0.535141 0.000000 0.000000 -0.000000 
-2.915406 8.548020 -0.000000 0.000000 -0.003501 0.003491 -4.959607 0.514030 -1.969829 0.000000 0.000014 -0.000847 -0.384696 0.001829 0.209889 -0.000000 -0.000000 -0.000000 
-2.915406 8.548020 -0.000000 0.000000 -0.003501 0.003491 -4.924686 0.509057 -1.956132 0.000000 0.000014 -0.000847 -0.786847 0.002514 -0.115325 -0.000000 -0.000000 0.000000 
-2.915406 8.548020 -0.000000 0.000000 -0.003501 0.003491 -4.868897 0.503230 -1.935559 0.000000 0.000014 -0.000847 -1.185486 0.012377 -0.436950 0.000000 -0.000000 -0.000000 
-2.915406 8.548020 -0.000000 0.000000 -0.003501 0.003491 -4.792036 0.500039 -1.904445 0.000000 0.000014 -0.000847 -1.580595 0.020874 -0.755044 0.000000 0.000000 -0.000000 
-2.915406 8.548020 -0.000000 0.000000 -0.003501 0.003491 -4.694469 0.489010 -1.866739 0.000000 0.000014 -0.000847 -1.968690 0.034836 -1.066001 0.000001 -0.000000 0.000000 
-2.915406 8.548020 -0.000000 0.000000 -0.003501 0.003491 -4.575819 0.480674 -1.818490 0.000000 0.000014 -0.000847 -2.353118 0.054363 -1.376811 -0.000000 0.000000 -0.000000 
-2.915406 8.548020 -0.000000 0.000000 -0.003501 0.003491 -4.443155 0.468504 -1.766803 0.000000 0.000014 -0.000847 -2.726932 0.078959 -1.676937 -0.000000 0.000000 -0.000000 
-2.915406 8.548020 -0.000000 0.000000 -0.003501 0.003491 -4.289653 0.459140 -1.708184 0.000000 0.000014 -0.000847 -3.093719 0.105290 -1.973483 -0.000000 -0.000000 -0.000000 
-2.915406 8.548020 -0.000000 0.000000 -0.003501 0.003491 -4.122127 0.445771 -1.639193 -0.000000 0.000014 -0.000847 -3.449874 0.132904 -2.259292 0.000000 -0.000000 -0.000000 
-2.915406 8.548020 -0.000000 0.000000 -0.003501 0.003491 -3.937075 0.432116 -1.566707 0.000000 0.000014 -0.000847 -3.791908 0.165190 -2.537982 -0.000000 0.000000 -0.000000 
-2.915406 8.548020 -0.000000 0.000000 -0.003501 0.003491 -3.738071 0.418174 -1.487231 0.000001 0.000014 -0.000847 -4.123235 0.201733 -2.802333 0.000000 0.000000 0.000000 
-2.915406 8.548020 -0.000000 0.000000 -0.003501 0.003491 -3.528684 0.404173 -1.404317 0.000000 0.000014 -0.000847 -4.440553 0.235671 -3.059684 0.000001 0.000000 -0.000000 
-2.915406 8.548020 -0.000000 0.000000 -0.003501 0.003491 -3.305189 0.390113 -1.317909 0.000000 0.000014 -0.000847 -4.740208 0.273084 -3.299272 -0.000000 0.000000 -0.000001 
-2.915406 8.548020 -0.000000 0.000000 -0.003501 0.003491 -3.067836 0.375938 -1.224511 0.000000 0.000014 -0.000847 -5.025942 0.307378 -3.528486 -0.000000 0.000000 -0.000001 
-2.915406 8.548020 -0.000000 0.000000 -0.003501 0.003491 -2.823428 0.361877 -1.124067 0.000000 0.000014 -0.000847 -5.290541 0.344756 -3.743442 -0.000000 0.000000 -0.000000 
-2.915406 8.548020 -0.000000 0.000000 -0.003501 0.003491 -2.568537 0.348041 -1.023565 0.000000 0.000014 -0.000847 -5.537585 0.381603 -3.940876 0.000001 -0.000000 -0.000000 
-2.915406 8.548020 -0.000000 0.000000 -0.003501 0.003491 -2.303124 0.334433 -0.919626 0.000000 0.000014 -0.000847 -5.763885 0.414046 -4.121019 0.000001 0.000000 -0.000000 
-2.915406 8.548020 -0.000000 0.000000 -0.003501 0.003491 -2.030798 0.321109 -0.812134 0.000000 0.000014 -0.000847 -5.965344 0.448670 -4.283428 0.000001 0.000000 0.000000 
-2.915406 8.548020 -0.000000 0.000000 -0.003501 0.003491 -1.751341 0.311677 -0.701035 -0.000000 0.000014 -0.000847 -6.146224 0.475010 -4.428778 -0.000000 0.000000 -0.000000 
-2.915406 8.548020 -0.000000 0.000000 -0.003501 0.003491 -1.468508 0.299151 -0.586554 0.000000 0.000014 -0.000847 -6.302417 0.503195 -4.556456 0.000000 0.000000 -0.000000 
-2.915406 8.548020 -0.000000 0.000000 -0.003501 0.003491 -1.178595 0.290689 -0.471903 0.000000 0.000014 -0.000847 -6.434422 0.525748 -4.659984 0.000001 0.000000 0.000000 
-2.915406 8.548020 -0.000000 0.000000 -0.003501 0.003491 -0.885237 0.279190 -0.353756 0.000000 0.000014 -0.000847 -6.538784 0.542454 -4.742976 -0.000000 -0.000000 0.000000 
-2.915406 8.548020 -0.000000 0.000000 -0.003501 0.003491 -0.591806 0.271813 -0.235610 0.000000 0.000014 -0.000847 -6.615141 0.556798 -4.805036 0.000000 -0.000000 0.000000 
-2.915406 8.548020 -0.000000 0.000000 -0.003501 0.003491 -0.291345 0.264949 -0.117407 0.000000 0.000014 -0.000847 -6.660273 0.564686 -4.843019 0.000001 0.000000 -0.000001 
-2.915406 8.548020 -0.000000 0.000000 -0.003501 0.003491 0.002106 0.262266 0.000853 0.000000 0.000014 -0.000847 -6.677432 0.569649 -4.853080 -0.000000 0.000000 -0.000000 
-2.915406 8.548020 -0.000000 0.000000 -0.003501 0.003491 0.302560 0.256660 0.122551 0.000000 0.000014 -0.000847 -6.660273 0.564686 -4.843017 0.000000 -0.000000 0.000000 
-2.915406 8.548020 -0.000000 0.000000 -0.003501 0.003491 0.599508 0.251740 0.240811 0.000000 0.000014 -0.000847 -6.615141 0.556799 -4.805036 -0.000000 0.000000 0.000000 
-2.915406 8.548020 -0.000000 0.000000 -0.003501 0.003491 0.896517 0.250886 0.359071 0.000000 0.000014 -0.000847 -6.538785 0.542454 -4.742976 0.000000 -0.000000 0.000000 
-2.915406 8.548020 -0.000000 0.000000 -0.003501 0.003491 1.189997 0.250605 0.473836 0.000000 0.000014 -0.000847 -6.434422 0.525748 -4.659983 0.000000 -0.000000 -0.000000 
-2.915406 8.548020 -0.000000 0.000000 -0.003501 0.003491 1.476591 0.251009 0.592095 0.000000 0.000014 -0.000847 -6.302416 0.503195 -4.556457 0.000000 0.000000 0.000000 
-2.915406 8.548020 -0.000000 0.000000 -0.003501 0.003491 1.763058 0.255423 0.703308 0.000000 0.000014 -0.000847 -6.146224 0.475010 -4.428779 0.000000 0.000000 -0.000000 
-2.915406 8.548020 -0.000000 0.000000 -0.003501 0.003491 2.042684 0.256858 0.814577 -0.000000 0.000014 -0.000847 -5.965345 0.448670 -4.283427 -0.000000 0.000000 0.000000 
-2.915406 8.548020 -0.000000 0.000000 -0.003501 0.003491 2.311793 0.258749 0.918857 0.000000 0.000014 -0.000847 -5.763884 0.414046 -4.121020 0.000000 -0.000000 0.000000 
-2.915406 8.548020 -0.000000 0.000000 -0.003501 0.003491 2.577378 0.264650 1.026574 0.000000 0.000014 -0.000847 -5.537584 0.381603 -3.940875 -0.000000 0.000000 -0.000000 
-2.915406 8.548020 -0.000000 0.000000 -0.003501 0.003491 2.832430 0.270894 1.127244 0.000000 0.000014 -0.000847 -5.290541 0.344756 -3.743442 -0.000000 0.000000 -0.000000 
-2.915406 8.548020 -0.000000 0.000000 -0.003501 0.003491 3.080600 0.277424 1.224476 -0.000000 0.000014 -0.000847 -5.025943 0.307378 -3.528486 -0.000000 -0.000000 0.000000 
-2.915406 8.548020 -0.000000 0.000000 -0.003501 0.003491 3.314725 0.284296 1.318156 0.000000 0.000014 -0.000847 -4.740208 0.273084 -3.299272 0.000000 -0.000000 0.000000 
-2.915406 8.548020 -0.000000 0.000000 -0.003501 0.003491 3.538415 0.291340 1.408398 0.000000 0.000014 -0.000847 -4.440552 0.235671 -3.059684 -0.000000 -0.000000 -0.000000 
-2.915406 8.548020 -0.000000 0.000000 -0.003501 0.003491 3.751577 0.298498 1.491651 0.000000 0.000014 -0.000847 -4.123235 0.201733 -2.802334 0.000000 -0.000000 -0.000000 
-2.915406 8.548020 -0.000000 0.000000 -0.003501 0.003491 3.950812 0.305770 1.571351 0.000000 0.000014 -0.000847 -3.791908 0.165190 -2.537982 0.000000 0.000000 -0.000000 
-2.915406 8.548020 -0.000000 0.000000 -0.003501 0.003491 4.132536 0.312927 1.644175 -0.000000 0.000014 -0.000847 -3.449875 0.132904 -2.259293 0.000000 0.000000 -0.000000 
-2.915406 8.548020 -0.000000 0.000000 -0.003501 0.003491 4.303831 0.320140 1.713448 -0.000001 0.000014 -0.000847 -3.093720 0.105290 -1.973483 -0.000000 0.000000 -0.000000 
-2.915406 8.548020 -0.000000 0.000000 -0.003501 0.003491 4.454203 0.326953 1.772291 -0.000001 0.000014 -0.000847 -2.726931 0.078959 -1.676937 -0.000000 0.000000 -0.000000 
-2.915406 8.548020 -0.000000 0.000000 -0.003501 0.003491 4.590452 0.333594 1.824203 0.000000 0.000014 -0.000847 -2.353118 0.054363 -1.376811 0.000000 -0.000000 -0.000000 
-2.915406 8.548020 -0.000000 0.000000 -0.003501 0.003491 4.705859 0.340006 1.872619 0.000001 0.000014 -0.000847 -1.968691 0.034836 -1.066001 -0.000000 -0.000000 -0.000000 
